<?xml version="1.0" standalone="no"?>
<!DOCTYPE svg PUBLIC "-//W3C//DTD SVG 20010904//EN"
 "http://www.w3.org/TR/2001/REC-SVG-20010904/DTD/svg10.dtd">
<svg version="1.0" xmlns="http://www.w3.org/2000/svg"
 width="700.000000pt" height="700.000000pt" viewBox="0 0 700.000000 700.000000"
 preserveAspectRatio="xMidYMid meet">
<metadata>
Created by potrace 1.11, written by Peter Selinger 2001-2013
</metadata>
<g transform="translate(0.000000,700.000000) scale(0.100000,-0.100000)"
fill="#000000" stroke="none">
<path d="M3277 6994 c-1 -1 -31 -4 -67 -8 -36 -3 -90 -9 -120 -12 -30 -3 -107
-14 -170 -25 -63 -11 -131 -22 -150 -25 -39 -7 -40 -8 -122 -129 -133 -198
-243 -467 -327 -800 -36 -143 -91 -413 -96 -480 -2 -17 -11 -76 -20 -125 -2
-8 -6 -44 -10 -80 -3 -36 -8 -76 -10 -90 -6 -43 -14 -121 -29 -302 -5 -60 -15
-213 -21 -333 -4 -83 -6 -405 -5 -720 1 -172 2 -179 18 -156 14 20 174 294
266 456 13 22 39 67 58 100 20 33 47 80 60 105 14 25 58 101 98 170 40 68 81
139 91 156 9 17 23 41 31 53 18 30 354 241 621 390 729 407 1370 676 1887 790
150 33 170 37 250 46 30 3 62 8 71 11 15 4 236 13 331 14 l37 0 -62 58 c-109
100 -189 167 -293 244 -121 89 -269 188 -283 188 -5 0 -11 4 -13 8 -6 15 -254
146 -393 207 -301 133 -670 233 -1000 270 -27 3 -72 8 -98 11 -46 5 -524 13
-530 8z"/>
<path d="M2385 6816 c-286 -101 -512 -207 -715 -335 -110 -69 -195 -125 -200
-131 -3 -3 -30 -24 -60 -45 -166 -120 -411 -346 -541 -500 -19 -22 -42 -49
-53 -60 -41 -45 -196 -257 -263 -360 -130 -203 -253 -452 -347 -704 -48 -127
-48 -134 -19 -201 108 -246 257 -446 542 -730 383 -383 922 -772 1621 -1173
19 -11 80 -44 135 -75 55 -30 115 -63 133 -74 17 -11 32 -16 32 -11 0 7 -160
290 -200 353 -5 8 -18 31 -28 50 -11 19 -102 177 -202 350 -176 304 -183 318
-190 385 -8 70 -5 1078 4 1190 14 192 18 243 21 265 2 14 7 63 10 110 4 47 9
93 10 102 2 9 6 43 10 75 3 32 8 69 10 83 2 14 7 45 10 70 40 293 136 710 206
889 16 40 29 78 29 83 0 28 137 315 180 378 33 49 42 70 28 69 -7 0 -80 -24
-163 -53z"/>
<path d="M5649 5886 c-2 -2 -34 -7 -71 -10 -37 -4 -75 -8 -85 -10 -10 -2 -38
-7 -63 -11 -25 -4 -72 -14 -105 -22 -33 -8 -71 -17 -85 -19 -80 -14 -457 -130
-475 -145 -5 -5 -15 -9 -23 -9 -8 0 -89 -30 -181 -66 -432 -172 -916 -415
-1360 -682 -96 -58 -186 -111 -200 -118 l-26 -14 30 -1 c17 -1 300 -2 630 -3
l600 -2 120 -66 c66 -36 156 -85 200 -108 44 -24 85 -46 90 -50 6 -4 30 -19
55 -32 780 -434 1502 -986 1880 -1437 25 -29 50 -58 55 -65 35 -39 128 -178
186 -275 l67 -114 11 39 c11 42 46 217 55 274 29 184 39 308 39 520 1 209 -8
432 -17 449 -2 3 -7 35 -10 70 -4 36 -8 67 -10 70 -2 3 -7 28 -10 55 -17 124
-76 359 -133 526 -50 147 -162 402 -231 525 -133 238 -264 434 -386 576 -17
19 -51 58 -75 86 -28 32 -56 54 -75 58 -33 8 -391 17 -397 11z"/>
<path d="M4350 4582 c0 -4 18 -39 41 -77 22 -39 52 -90 66 -115 14 -25 85
-148 158 -275 73 -126 143 -248 155 -270 12 -22 48 -85 80 -140 32 -55 73
-129 91 -165 l33 -65 1 -515 c0 -453 -3 -596 -20 -845 -4 -71 -15 -194 -20
-232 -2 -16 -6 -59 -10 -98 -4 -38 -8 -81 -10 -95 -2 -14 -11 -74 -19 -135 -9
-60 -22 -148 -31 -195 -8 -47 -17 -98 -20 -115 -69 -384 -223 -822 -374 -1060
-17 -27 -29 -50 -27 -52 2 -2 70 18 152 45 951 313 1722 1021 2120 1945 41 93
124 316 124 330 0 9 -62 147 -82 182 -6 11 -26 46 -44 77 -87 154 -210 305
-419 514 -93 93 -226 217 -295 275 -344 289 -792 598 -1260 869 -302 175 -390
223 -390 212z"/>
<path d="M101 4334 c-5 -22 -12 -50 -15 -64 -3 -14 -7 -36 -10 -50 -5 -23 -18
-90 -30 -164 -3 -16 -8 -50 -12 -75 -3 -25 -7 -56 -9 -69 -19 -121 -26 -524
-12 -692 23 -281 78 -554 167 -823 28 -84 55 -161 60 -172 5 -11 23 -54 40
-95 32 -75 129 -272 168 -341 11 -20 26 -47 34 -60 7 -13 15 -26 18 -29 3 -3
23 -34 44 -70 52 -86 151 -222 245 -340 120 -150 127 -156 196 -168 56 -10
375 -9 420 1 11 3 45 8 76 11 31 4 67 9 80 11 13 3 47 9 74 15 337 65 755 210
1219 425 180 82 584 290 646 332 19 13 38 23 42 23 4 0 29 13 55 28 27 16 93
55 148 88 55 32 108 64 117 69 9 6 46 27 82 48 36 21 66 41 66 45 0 4 -281 8
-625 9 l-625 1 -73 40 c-39 22 -108 59 -152 82 -940 505 -1768 1127 -2161
1625 -21 28 -41 52 -44 55 -9 8 -120 169 -120 173 0 2 -22 41 -49 87 l-50 83
-10 -39z"/>
<path d="M4807 3218 c-91 -155 -162 -279 -192 -333 -15 -27 -31 -54 -35 -60
-5 -5 -23 -37 -40 -70 -18 -33 -38 -67 -44 -75 -7 -8 -25 -40 -40 -70 -16 -30
-34 -62 -41 -70 -7 -8 -14 -20 -16 -26 -2 -5 -40 -72 -84 -148 l-80 -138 -166
-103 c-203 -126 -401 -242 -566 -331 -37 -20 -86 -47 -108 -59 -59 -34 -407
-207 -510 -255 -408 -189 -887 -359 -1165 -414 -14 -2 -50 -10 -80 -16 -30 -6
-71 -13 -90 -16 -19 -3 -46 -7 -60 -9 -96 -15 -195 -21 -375 -25 l-60 -1 75
-70 c41 -39 107 -96 145 -127 39 -31 72 -59 75 -63 9 -10 214 -154 265 -186
139 -88 466 -263 490 -263 3 0 24 -8 48 -19 42 -19 100 -41 208 -79 177 -64
489 -138 664 -158 28 -4 61 -8 75 -10 182 -25 581 -24 810 2 104 12 355 56
360 63 3 4 26 37 53 73 40 56 157 252 157 264 0 2 11 28 25 58 96 209 216 628
251 875 3 20 9 59 14 86 10 52 25 164 36 250 3 28 7 61 9 75 2 14 7 57 10 95
3 39 8 84 10 101 3 18 7 74 10 125 3 52 8 114 11 139 7 53 18 1011 12 1055 -3
28 -8 22 -61 -67z"/>
</g>
</svg>
